<svg xmlns="http://www.w3.org/2000/svg" width="76.345" height="76.345" viewBox="0 0 76.345 76.345">
  <g id="Group_1219710" data-name="Group 1219710" transform="translate(-1021.967 -3092.655)">
    <g id="Group_1200255" data-name="Group 1200255">
      <g id="Group_1187152" data-name="Group 1187152">
        <g id="Group_1185946" data-name="Group 1185946" transform="translate(-3.07)">
          <g id="Group_1184280" data-name="Group 1184280">
            <g id="Group_1182168" data-name="Group 1182168">
              <g id="Group_1178877" data-name="Group 1178877">
                <g id="Group_1111311" data-name="Group 1111311">
                  <g id="Group_1098742" data-name="Group 1098742" transform="translate(1025.482 3093.101)">
                    <g id="Rectangle_400898" data-name="Rectangle 400898" transform="translate(-0.445 -0.445)" fill="#59cae4" stroke="#3d8c9f" stroke-width="1" opacity="0.859">
                      <rect width="76.345" height="76.345" rx="38.172" stroke="none"/>
                      <rect x="0.5" y="0.5" width="75.345" height="75.345" rx="37.672" fill="none"/>
                    </g>
                    <g id="Rectangle_400907" data-name="Rectangle 400907" transform="translate(-0.446 -0.445)" fill="none" stroke="#3d8c9f" stroke-width="1">
                      <rect width="76.345" height="76.345" rx="38.172" stroke="none"/>
                      <rect x="0.5" y="0.5" width="75.345" height="75.345" rx="37.672" fill="none"/>
                    </g>
                  </g>
                </g>
              </g>
            </g>
          </g>
        </g>
      </g>
    </g>
    <g id="_x39_3_Budget_Accounting" transform="translate(1030.205 3100.879)">
      <g id="Group_1203904" data-name="Group 1203904" transform="translate(5.89 5.905)">
        <path id="Path_1261462" data-name="Path 1261462" d="M74.506,9.818a3.077,3.077,0,0,0-3.082,3.077V51.007a3.068,3.068,0,0,1-.242,1.2,2.873,2.873,0,0,1-.282.519,2.055,2.055,0,0,1-.176.236,2.025,2.025,0,0,1-.2.221h0a3.07,3.07,0,0,1-2.18.9H41.837V12.895a3.077,3.077,0,0,1,3.082-3.077Z" transform="translate(-38.381 -9.442)" fill="#e8f1f8"/>
        <path id="Path_1261463" data-name="Path 1261463" d="M74.506,9.818a3.077,3.077,0,0,0-3.082,3.077V51.007a3.069,3.069,0,0,1-.242,1.2,2.871,2.871,0,0,1-.282.519,3.452,3.452,0,0,1-.373.458h-.005a3.071,3.071,0,0,1-2.18.9H41.837V49.743A29.6,29.6,0,0,0,65.946,20.664V9.818Z" transform="translate(-38.381 -9.442)" opacity="0.12"/>
        <path id="Path_1261464" data-name="Path 1261464" d="M358.846,44.8h-9.24v-31.9a3.079,3.079,0,0,1,6.158,0V41.717A3.082,3.082,0,0,0,358.846,44.8Z" transform="translate(-316.563 -9.442)" fill="#acbadf"/>
        <path id="Path_1261465" data-name="Path 1261465" d="M413.676,143.833v19.016a3.08,3.08,0,0,0,6.159,0V143.833Z" transform="translate(-374.473 -130.573)" fill="#e8f1f8"/>
        <path id="Path_1261466" data-name="Path 1261466" d="M93.82,54.495a6.272,6.272,0,1,1-6.271-6.271A6.271,6.271,0,0,1,93.82,54.495Z" transform="translate(-74.03 -44.156)" fill="#fdcf17"/>
        <path id="Path_1261467" data-name="Path 1261467" d="M130.144,93.586h1.964a1.183,1.183,0,0,0,0-2.366h-.782a1.183,1.183,0,1,1,0-2.366h1.964" transform="translate(-118.199 -80.881)" fill="none" stroke="#f78721" stroke-linecap="round" stroke-linejoin="round" stroke-miterlimit="10" stroke-width="1.5"/>
        <path id="Path_1261468" data-name="Path 1261468" d="M146.51,139.05v-.983" transform="translate(-132.991 -125.362)" fill="none" stroke="#f78721" stroke-linecap="round" stroke-linejoin="round" stroke-miterlimit="10" stroke-width="1.5"/>
        <path id="Path_1261469" data-name="Path 1261469" d="M146.51,79.61v-.983" transform="translate(-132.991 -71.636)" fill="none" stroke="#f78721" stroke-linecap="round" stroke-linejoin="round" stroke-miterlimit="10" stroke-width="1.5"/>
        <path id="Path_1261470" data-name="Path 1261470" d="M85.016,335.128v3.406a.656.656,0,0,1-.656.656H81.934a.656.656,0,0,1-.656-.656v-3.406a.656.656,0,0,1,.656-.656H84.36A.656.656,0,0,1,85.016,335.128Z" transform="translate(-74.031 -302.885)" fill="#f14f4a"/>
        <path id="Path_1261471" data-name="Path 1261471" d="M85.014,335.117v3.407a.655.655,0,0,1-.656.656H81.933a.655.655,0,0,1-.656-.656v-.061a3.082,3.082,0,0,0,3.023-3.082v-.92h.059A.656.656,0,0,1,85.014,335.117Z" transform="translate(-74.03 -302.875)" opacity="0.12"/>
        <path id="Path_1261472" data-name="Path 1261472" d="M139.047,276.748v9.018a.656.656,0,0,1-.656.656h-2.426a.656.656,0,0,1-.656-.656v-9.018a.656.656,0,0,1,.656-.656h2.426A.656.656,0,0,1,139.047,276.748Z" transform="translate(-122.867 -250.117)" fill="#f14f4a"/>
        <path id="Path_1261473" data-name="Path 1261473" d="M139.046,276.736v9.019a.655.655,0,0,1-.656.656h-2.426a.655.655,0,0,1-.656-.656v-.061a3.082,3.082,0,0,0,3.023-3.082V276.08h.059A.656.656,0,0,1,139.046,276.736Z" transform="translate(-122.867 -250.107)" opacity="0.12"/>
        <path id="Path_1261474" data-name="Path 1261474" d="M193.079,302.762v6.517a.656.656,0,0,1-.656.656H190a.656.656,0,0,1-.656-.656v-6.517a.656.656,0,0,1,.656-.656h2.426A.656.656,0,0,1,193.079,302.762Z" transform="translate(-171.705 -273.63)" fill="#f14f4a"/>
        <path id="Path_1261475" data-name="Path 1261475" d="M193.077,302.751v6.519a.655.655,0,0,1-.656.656H190a.655.655,0,0,1-.656-.656v-.061a3.082,3.082,0,0,0,3.023-3.082V302.1h.059A.656.656,0,0,1,193.077,302.751Z" transform="translate(-171.704 -273.621)" opacity="0.12"/>
        <path id="Path_1261476" data-name="Path 1261476" d="M247.11,244.382v12.13a.656.656,0,0,1-.656.656h-2.426a.656.656,0,0,1-.656-.656v-12.13a.656.656,0,0,1,.656-.656h2.426a.656.656,0,0,1,.656.656Z" transform="translate(-220.542 -220.863)" fill="#f14f4a"/>
        <path id="Path_1261477" data-name="Path 1261477" d="M247.11,244.37V256.5a.655.655,0,0,1-.656.656h-2.426a.655.655,0,0,1-.656-.656v-.061a3.082,3.082,0,0,0,3.023-3.082v-9.644h.059A.656.656,0,0,1,247.11,244.37Z" transform="translate(-220.542 -220.852)" opacity="0.12"/>
        <path id="Path_1261478" data-name="Path 1261478" d="M39.417,419.563H12.906a3.075,3.075,0,0,1-3.072-3.077V414.17H36.345v2.316a3.075,3.075,0,0,0,3.072,3.077Z" transform="translate(-9.455 -374.921)" fill="#acbadf"/>
        <path id="Path_1261479" data-name="Path 1261479" d="M323.744,245.56v21.157a1.845,1.845,0,0,1-1.845,1.845H306.61a1.845,1.845,0,0,1-1.845-1.845V245.56a1.845,1.845,0,0,1,1.845-1.845H321.9A1.845,1.845,0,0,1,323.744,245.56Z" transform="translate(-276.032 -220.853)" fill="#475da9"/>
        <path id="Path_1261480" data-name="Path 1261480" d="M323.741,245.563v21.156a1.844,1.844,0,0,1-1.845,1.845H306.607a1.844,1.844,0,0,1-1.845-1.845v-.713h5.113A11.307,11.307,0,0,0,321.184,254.7V243.718h.713A1.844,1.844,0,0,1,323.741,245.563Z" transform="translate(-276.03 -220.856)" opacity="0.12"/>
        <path id="Path_1261481" data-name="Path 1261481" d="M345.06,274.642v-4.854a.692.692,0,0,0-.692-.692H331.847a.692.692,0,0,0-.692.692v4.854a.692.692,0,0,0,.692.692h12.521A.692.692,0,0,0,345.06,274.642Z" transform="translate(-299.885 -243.794)" fill="#acbadf"/>
        <path id="Path_1261482" data-name="Path 1261482" d="M334.708,354.515v1.128a.9.9,0,0,1-.9.9h-1.76a.9.9,0,0,1-.9-.9v-1.128a.9.9,0,0,1,.9-.9h1.76A.9.9,0,0,1,334.708,354.515Z" transform="translate(-299.88 -320.189)" fill="#f78721"/>
        <g id="Group_1203902" data-name="Group 1203902" transform="translate(31.269 33.427)">
          <path id="Path_1261483" data-name="Path 1261483" d="M388.521,354.515v1.128a.9.9,0,0,1-.9.9h-1.76a.9.9,0,0,1-.9-.9v-1.128a.9.9,0,0,1,.9-.9h1.76A.9.9,0,0,1,388.521,354.515Z" transform="translate(-379.789 -353.616)" fill="#e8f1f8"/>
          <path id="Path_1261484" data-name="Path 1261484" d="M442.334,354.515v1.128a.9.9,0,0,1-.9.9h-1.76a.9.9,0,0,1-.9-.9v-1.128a.9.9,0,0,1,.9-.9h1.76A.9.9,0,0,1,442.334,354.515Z" transform="translate(-428.428 -353.616)" fill="#e8f1f8"/>
          <path id="Path_1261485" data-name="Path 1261485" d="M334.708,400.878v1.128a.9.9,0,0,1-.9.9h-1.76a.9.9,0,0,1-.9-.9v-1.128a.9.9,0,0,1,.9-.9h1.76A.9.9,0,0,1,334.708,400.878Z" transform="translate(-331.149 -395.522)" fill="#e8f1f8"/>
          <path id="Path_1261486" data-name="Path 1261486" d="M388.521,400.878v1.128a.9.9,0,0,1-.9.9h-1.76a.9.9,0,0,1-.9-.9v-1.128a.9.9,0,0,1,.9-.9h1.76A.9.9,0,0,1,388.521,400.878Z" transform="translate(-379.789 -395.522)" fill="#e8f1f8"/>
          <path id="Path_1261487" data-name="Path 1261487" d="M334.708,447.241v1.128a.9.9,0,0,1-.9.9h-1.76a.9.9,0,0,1-.9-.9v-1.128a.9.9,0,0,1,.9-.9h1.76A.9.9,0,0,1,334.708,447.241Z" transform="translate(-331.149 -437.428)" fill="#e8f1f8"/>
          <path id="Path_1261488" data-name="Path 1261488" d="M388.521,447.241v1.128a.9.9,0,0,1-.9.9h-1.76a.9.9,0,0,1-.9-.9v-1.128a.9.9,0,0,1,.9-.9h1.76A.9.9,0,0,1,388.521,447.241Z" transform="translate(-379.789 -437.428)" fill="#e8f1f8"/>
        </g>
        <path id="Path_1261489" data-name="Path 1261489" d="M442.316,400.9v5.584a.9.9,0,0,1-.9.9h-1.762a.9.9,0,0,1-.9-.9V400.9a.9.9,0,0,1,.9-.9h1.762A.9.9,0,0,1,442.316,400.9Z" transform="translate(-397.142 -362.113)" fill="#fdcf17"/>
        <g id="Group_1203903" data-name="Group 1203903" transform="translate(0 0)">
          <path id="Path_1261490" data-name="Path 1261490" d="M84,57.6a6.649,6.649,0,1,0-6.65-6.65A6.656,6.656,0,0,0,84,57.6Zm0-12.543A5.894,5.894,0,1,1,78.1,50.946,5.9,5.9,0,0,1,84,45.053Z" transform="translate(-70.477 -40.607)"/>
          <path id="Path_1261491" data-name="Path 1261491" d="M128.557,80.411h-1.964a.378.378,0,1,0,0,.755h1.2v.606a.378.378,0,1,0,.755,0v-.606h.013a1.561,1.561,0,0,0,0-3.121h-.781a.8.8,0,1,1,0-1.61h1.964a.378.378,0,0,0,0-.755h-1.2v-.606a.378.378,0,0,0-.755,0v.606h-.013a1.56,1.56,0,1,0,0,3.121h.781a.805.805,0,0,1,0,1.61Z" transform="translate(-114.647 -68.084)"/>
          <path id="Path_1261492" data-name="Path 1261492" d="M80.806,330.543H78.38a1.035,1.035,0,0,0-1.034,1.033v3.406a1.035,1.035,0,0,0,1.034,1.033h2.426a1.035,1.035,0,0,0,1.034-1.033v-3.406A1.035,1.035,0,0,0,80.806,330.543Zm.278,4.439a.278.278,0,0,1-.278.278H78.38a.278.278,0,0,1-.278-.278v-3.406a.278.278,0,0,1,.278-.278h2.426a.278.278,0,0,1,.278.278Z" transform="translate(-70.477 -299.334)"/>
          <path id="Path_1261493" data-name="Path 1261493" d="M134.841,272.161h-2.427a1.035,1.035,0,0,0-1.033,1.034v9.018a1.035,1.035,0,0,0,1.033,1.033h2.427a1.035,1.035,0,0,0,1.033-1.033v-9.018A1.035,1.035,0,0,0,134.841,272.161Zm.278,10.052a.278.278,0,0,1-.278.278h-2.427a.278.278,0,0,1-.278-.278v-9.018a.278.278,0,0,1,.278-.278h2.427a.278.278,0,0,1,.278.278Z" transform="translate(-119.317 -246.564)"/>
          <path id="Path_1261494" data-name="Path 1261494" d="M188.871,298.176h-2.426a1.035,1.035,0,0,0-1.034,1.034v6.517a1.035,1.035,0,0,0,1.034,1.033h2.426a1.035,1.035,0,0,0,1.034-1.033V299.21A1.035,1.035,0,0,0,188.871,298.176Zm.278,7.551a.278.278,0,0,1-.278.278h-2.426a.278.278,0,0,1-.278-.278V299.21a.279.279,0,0,1,.278-.278h2.426a.279.279,0,0,1,.278.278Z" transform="translate(-168.153 -270.078)"/>
          <path id="Path_1261495" data-name="Path 1261495" d="M242.9,239.8h-2.427a1.035,1.035,0,0,0-1.033,1.033v12.13a1.035,1.035,0,0,0,1.033,1.033H242.9a1.035,1.035,0,0,0,1.033-1.033v-12.13A1.035,1.035,0,0,0,242.9,239.8Zm.278,13.163a.278.278,0,0,1-.278.278h-2.427a.278.278,0,0,1-.278-.278v-12.13a.278.278,0,0,1,.278-.278H242.9a.278.278,0,0,1,.278.278Z" transform="translate(-216.992 -217.313)"/>
          <path id="Path_1261496" data-name="Path 1261496" d="M86.657,204.648H77.725a.378.378,0,1,0,0,.755h8.932a.378.378,0,1,0,0-.755Z" transform="translate(-70.477 -185.542)"/>
          <path id="Path_1261497" data-name="Path 1261497" d="M83.751,240.554a.378.378,0,0,0,0-.755H77.725a.378.378,0,1,0,0,.755Z" transform="translate(-70.477 -217.313)"/>
          <path id="Path_1261498" data-name="Path 1261498" d="M51.756,28.39h-.125V19.163a.378.378,0,0,0-.378-.378H45.468V9.359a3.458,3.458,0,0,0-3.454-3.454H12.426A3.454,3.454,0,0,0,8.966,9.359V44.778h-2.7a.378.378,0,0,0-.378.378v2.316a3.456,3.456,0,0,0,3.454,3.454h24.9v.842a2.225,2.225,0,0,0,2.223,2.223H51.756a2.225,2.225,0,0,0,2.223-2.223V30.612a2.225,2.225,0,0,0-2.223-2.222Zm-6.284-8.849h5.4V28.39h-5.4ZM42.014,6.66a2.7,2.7,0,0,1,2.7,2.7V28.39h-5.4V9.359a2.7,2.7,0,0,1,2.7-2.7ZM9.344,50.171h0a2.7,2.7,0,0,1-2.694-2.7V45.533H32.4v1.938a3.459,3.459,0,0,0,1.3,2.7Zm24.9-19.559V49.629a2.7,2.7,0,0,1-1.089-2.158V45.156a.378.378,0,0,0-.378-.378H9.722V9.359a2.7,2.7,0,0,1,2.7-2.7H39.853a3.442,3.442,0,0,0-1.3,2.7V28.39H36.467a2.225,2.225,0,0,0-2.223,2.222ZM53.224,51.768a1.469,1.469,0,0,1-1.467,1.467H36.467A1.469,1.469,0,0,1,35,51.768V30.612a1.469,1.469,0,0,1,1.467-1.467H51.756a1.469,1.469,0,0,1,1.467,1.467Z" transform="translate(-5.89 -5.905)"/>
          <path id="Path_1261499" data-name="Path 1261499" d="M340.815,265.169H328.294a1.071,1.071,0,0,0-1.07,1.07v4.853a1.071,1.071,0,0,0,1.07,1.07h12.521a1.071,1.071,0,0,0,1.07-1.07v-4.853A1.071,1.071,0,0,0,340.815,265.169Zm.314,5.923a.315.315,0,0,1-.314.314H328.294a.315.315,0,0,1-.314-.314v-4.853a.315.315,0,0,1,.314-.314h12.521a.315.315,0,0,1,.314.314Z" transform="translate(-296.332 -240.244)"/>
          <path id="Path_1261500" data-name="Path 1261500" d="M330.26,349.689H328.5a1.278,1.278,0,0,0-1.277,1.277v1.128a1.278,1.278,0,0,0,1.277,1.277h1.76a1.278,1.278,0,0,0,1.277-1.277v-1.128A1.279,1.279,0,0,0,330.26,349.689Zm.522,2.4a.522.522,0,0,1-.522.521H328.5a.522.522,0,0,1-.521-.521v-1.128a.522.522,0,0,1,.521-.522h1.76a.522.522,0,0,1,.522.522Z" transform="translate(-296.331 -316.639)"/>
          <path id="Path_1261501" data-name="Path 1261501" d="M384.563,349.788l-.007,0h0l-.01,0a1.266,1.266,0,0,0-.474-.093h-1.76a1.278,1.278,0,0,0-1.277,1.277v1.128a1.278,1.278,0,0,0,1.277,1.277h1.76a1.278,1.278,0,0,0,1.277-1.277v-1.128A1.279,1.279,0,0,0,384.563,349.788Zm.029,1.185s0,0,0,0v0s0,0,0,0v1.111a.522.522,0,0,1-.521.521h-1.76a.522.522,0,0,1-.522-.521v-1.128a.522.522,0,0,1,.522-.522h1.76a.522.522,0,0,1,.521.522Z" transform="translate(-344.968 -316.639)"/>
          <path id="Path_1261502" data-name="Path 1261502" d="M437.884,349.689h-1.76a1.278,1.278,0,0,0-1.277,1.277v1.128a1.278,1.278,0,0,0,1.277,1.277h1.76a1.278,1.278,0,0,0,1.277-1.277v-1.128A1.278,1.278,0,0,0,437.884,349.689Zm.522,2.4a.522.522,0,0,1-.522.521h-1.76a.522.522,0,0,1-.522-.521v-1.128a.522.522,0,0,1,.522-.522h1.76a.522.522,0,0,1,.522.522Z" transform="translate(-393.609 -316.639)"/>
          <path id="Path_1261503" data-name="Path 1261503" d="M330.26,396.051H328.5a1.278,1.278,0,0,0-1.277,1.277v1.128a1.278,1.278,0,0,0,1.277,1.277h1.76a1.278,1.278,0,0,0,1.277-1.277v-1.128A1.279,1.279,0,0,0,330.26,396.051Zm.522,2.4a.522.522,0,0,1-.522.521H328.5a.522.522,0,0,1-.521-.521v-1.128a.522.522,0,0,1,.521-.522h1.76a.522.522,0,0,1,.522.522Z" transform="translate(-296.331 -358.544)"/>
          <path id="Path_1261504" data-name="Path 1261504" d="M384.07,396.051h-1.76a1.278,1.278,0,0,0-1.277,1.277v1.128a1.278,1.278,0,0,0,1.277,1.277h1.76a1.278,1.278,0,0,0,1.277-1.277v-1.128A1.279,1.279,0,0,0,384.07,396.051Zm.521,2.4a.522.522,0,0,1-.521.521h-1.76a.522.522,0,0,1-.522-.521v-1.128a.522.522,0,0,1,.522-.522h1.76a.522.522,0,0,1,.521.522Z" transform="translate(-344.968 -358.544)"/>
          <path id="Path_1261505" data-name="Path 1261505" d="M330.26,442.413H328.5a1.278,1.278,0,0,0-1.277,1.277v1.128a1.278,1.278,0,0,0,1.277,1.277h1.76a1.278,1.278,0,0,0,1.277-1.277V443.69A1.279,1.279,0,0,0,330.26,442.413Zm.522,2.4a.522.522,0,0,1-.522.522H328.5a.522.522,0,0,1-.521-.522V443.69a.522.522,0,0,1,.521-.522h1.76a.522.522,0,0,1,.522.522Z" transform="translate(-296.331 -400.449)"/>
          <path id="Path_1261506" data-name="Path 1261506" d="M384.07,442.413h-1.76a1.278,1.278,0,0,0-1.277,1.277v1.128a1.278,1.278,0,0,0,1.277,1.277h1.76a1.278,1.278,0,0,0,1.277-1.277V443.69A1.279,1.279,0,0,0,384.07,442.413Zm.521,2.4a.522.522,0,0,1-.521.522h-1.76a.522.522,0,0,1-.522-.522V443.69a.522.522,0,0,1,.522-.522h1.76a.522.522,0,0,1,.521.522Z" transform="translate(-344.968 -400.449)"/>
          <path id="Path_1261507" data-name="Path 1261507" d="M437.869,396.071h-1.762a1.278,1.278,0,0,0-1.279,1.274v5.584a1.281,1.281,0,0,0,1.279,1.279h1.762a1.278,1.278,0,0,0,1.274-1.279v-5.584A1.275,1.275,0,0,0,437.869,396.071Zm.519,6.858a.522.522,0,0,1-.519.524h-1.762a.524.524,0,0,1-.524-.524v-5.584a.522.522,0,0,1,.524-.519h1.762a.519.519,0,0,1,.519.519Z" transform="translate(-393.592 -358.562)"/>
          <path id="Path_1261508" data-name="Path 1261508" d="M430.477,277.9a1.492,1.492,0,0,0-1.491,1.49v1.564a1.49,1.49,0,1,0,2.981,0V279.39A1.492,1.492,0,0,0,430.477,277.9Zm.735,3.054a.735.735,0,1,1-1.47,0V279.39a.735.735,0,1,1,1.47,0Z" transform="translate(-388.311 -251.752)"/>
        </g>
      </g>
    </g>
  </g>
</svg>
